<svg xmlns="http://www.w3.org/2000/svg" width="161" height="161" viewBox="0 0 161 161">
  <g id="グループ_4" data-name="グループ 4" transform="translate(-1434 166)">
    <rect id="長方形_10" data-name="長方形 10" width="161" height="161" rx="10" transform="translate(1434 -166)" fill="#ff5a5f"/>
    <g id="バスアイコン" transform="translate(1368.224 -240.279)">
      <g id="バス本体" transform="translate(87 141)">
        <g id="長方形_1" data-name="長方形 1" transform="translate(0 0)">
          <path id="パス_16" data-name="パス 16" d="M9.179,0H110.373a9.179,9.179,0,0,1,9.179,9.179V61.038H0V9.179A9.179,9.179,0,0,1,9.179,0Z" transform="translate(0 0)" fill="#595959" stroke="#707070" stroke-width="1"/>
          <path id="パス_17" data-name="パス 17" d="M9.564.5H110.758a9.064,9.064,0,0,1,9.064,9.064v51.63a.115.115,0,0,1-.115.115H.615A.115.115,0,0,1,.5,61.194V9.564A9.064,9.064,0,0,1,9.564.5Z" transform="translate(-0.385 -0.385)" fill="none"/>
        </g>
        <g id="楕円形_1" data-name="楕円形 1" transform="translate(13.544 48.757)" fill="#413e3e" stroke="#413e3e" stroke-width="1">
          <ellipse cx="12.189" cy="11.512" rx="12.189" ry="11.512" stroke="none"/>
          <ellipse cx="12.189" cy="11.512" rx="11.689" ry="11.012" fill="none"/>
        </g>
        <g id="楕円形_2" data-name="楕円形 2" transform="translate(83.97 48.757)" fill="#413e3e" stroke="#413e3e" stroke-width="1">
          <ellipse cx="11.512" cy="12.866" rx="11.512" ry="12.866" stroke="none"/>
          <ellipse cx="11.512" cy="12.866" rx="11.012" ry="12.366" fill="none"/>
        </g>
        <g id="楕円形_3" data-name="楕円形 3" transform="translate(18.961 54.174)" fill="#b9b9b9" stroke="#413e3e" stroke-width="1">
          <ellipse cx="6.772" cy="6.095" rx="6.772" ry="6.095" stroke="none"/>
          <ellipse cx="6.772" cy="6.095" rx="6.272" ry="5.595" fill="none"/>
        </g>
        <g id="楕円形_4" data-name="楕円形 4" transform="translate(89.387 54.174)" fill="#b9b9b9" stroke="#413e3e" stroke-width="1">
          <circle cx="6.095" cy="6.095" r="6.095" stroke="none"/>
          <circle cx="6.095" cy="6.095" r="5.595" fill="none"/>
        </g>
      </g>
      <g id="窓" transform="translate(91.063 150.48)">
        <g id="長方形_2" data-name="長方形 2" fill="#fff" stroke="rgba(112,112,112,0)" stroke-width="1">
          <rect width="17.607" height="32.505" stroke="none"/>
          <rect x="0.5" y="0.5" width="16.607" height="31.505" fill="none"/>
        </g>
        <g id="長方形_3" data-name="長方形 3" transform="translate(24.378)" fill="#fff" stroke="rgba(112,112,112,0)" stroke-width="1">
          <rect width="18.961" height="20.315" stroke="none"/>
          <rect x="0.5" y="0.5" width="17.961" height="19.315" fill="none"/>
        </g>
        <g id="長方形_5" data-name="長方形 5" transform="translate(75.844)" fill="#fff" stroke="rgba(112,112,112,0)" stroke-width="1">
          <rect width="18.961" height="20.315" stroke="none"/>
          <rect x="0.5" y="0.5" width="17.961" height="19.315" fill="none"/>
        </g>
        <g id="長方形_6" data-name="長方形 6" transform="translate(101.577)" fill="#fff" stroke="rgba(112,112,112,0)" stroke-width="1">
          <rect width="10.835" height="20.315" stroke="none"/>
          <rect x="0.5" y="0.5" width="9.835" height="19.315" fill="none"/>
        </g>
        <g id="長方形_4" data-name="長方形 4" transform="translate(50.111)" fill="#fff" stroke="rgba(112,112,112,0)" stroke-width="1">
          <rect width="18.961" height="20.315" stroke="none"/>
          <rect x="0.5" y="0.5" width="17.961" height="19.315" fill="none"/>
        </g>
      </g>
      <g id="ハンドル" transform="translate(91.102 171.206)">
        <path id="パス_4" data-name="パス 4" d="M.341.135,4.412,4.3" transform="translate(-0.234 -0.135)" fill="none" stroke="#707070" stroke-width="1"/>
        <path id="パス_5" data-name="パス 5" d="M-.067-.131l3.338,3.3" transform="translate(0.195 1.906)" fill="none" stroke="#707070" stroke-width="1"/>
        <line id="線_5" data-name="線 5" x1="0.918" y2="0.918" transform="translate(3.356 4.099)" fill="none" stroke="#707070" stroke-width="1"/>
        <path id="パス_6" data-name="パス 6" d="M0,0V1.781" transform="translate(0.143 0.084)" fill="none" stroke="#707070" stroke-width="1"/>
        <g id="長方形_7" data-name="長方形 7" transform="translate(0 1.753) rotate(-45)" fill="#707070" stroke="#707070" stroke-width="1">
          <rect width="1.377" height="4.819" stroke="none"/>
          <rect x="0.5" y="0.5" width="0.377" height="3.819" fill="none"/>
        </g>
        <g id="多角形_1" data-name="多角形 1" transform="translate(0.915 0.053) rotate(90.974)">
          <path id="パス_18" data-name="パス 18" d="M1.039.449H0L.519,0Z" transform="translate(0.308 0.152)" fill="#fff"/>
          <path id="パス_19" data-name="パス 19" d="M.827.3.616.486h.423L.827.3m0-.3.827.716H0Z" transform="translate(0 0)" fill="#707070"/>
        </g>
      </g>
      <g id="運転手" transform="translate(92.496 161.652)">
        <g id="楕円形_5" data-name="楕円形 5" transform="translate(6.674)" fill="#555252" stroke="#555252" stroke-width="1">
          <circle cx="4.13" cy="4.13" r="4.13" stroke="none"/>
          <circle cx="4.13" cy="4.13" r="3.63" fill="none"/>
        </g>
        <path id="パス_1" data-name="パス 1" d="M132,267a4.712,4.712,0,0,0,.489.326,1.751,1.751,0,0,0,.272.123l.1.028a3.335,3.335,0,0,0,1.566.162l.388-.042.335-.054.485-.15.781-.392,3.251,12.783c0,.151-11,0-11,0Z" transform="translate(-123.367 -258.739)" fill="#555252" stroke="#555252" stroke-width="1"/>
        <path id="パス_2" data-name="パス 2" d="M8.112,0C6.852,1.262,5.577,2.42,5.577,2.42l-.61.467L.6,4.293S-.217,5.011.056,5.67s.759.659.759.659S4.6,5.208,5.694,4.75,9.363,1.608,9.363,1.608Z" transform="translate(1.85 6.886) rotate(17)" fill="#555252" stroke="#555252" stroke-width="1"/>
      </g>
    </g>
    <text id="MENU" transform="translate(1467 -119)" fill="#eaeaea" font-size="35" font-family="bananaslipplus, bananaslip plus"><tspan x="0" y="0">MENU</tspan></text>
  </g>
</svg>
