<svg xmlns="http://www.w3.org/2000/svg" width="225" height="136" viewBox="0 0 225 136">
  <g id="グループ_1" data-name="グループ 1" transform="translate(-94 -345)">
    <path id="長方形_1" data-name="長方形 1" d="M19,0H206a19,19,0,0,1,19,19v95a0,0,0,0,1,0,0H0a0,0,0,0,1,0,0V19A19,19,0,0,1,19,0Z" transform="translate(94 345)" fill="#ff5a5f"/>
    <rect id="長方形_2" data-name="長方形 2" width="38" height="37" transform="translate(147 364)" fill="#fff"/>
    <rect id="長方形_3" data-name="長方形 3" width="38" height="37" transform="translate(243 364)" fill="#fff"/>
    <rect id="長方形_4" data-name="長方形 4" width="38" height="37" transform="translate(195 364)" fill="#fff"/>
    <rect id="長方形_5" data-name="長方形 5" width="22" height="37" transform="translate(291 364)" fill="#fff"/>
    <rect id="長方形_6" data-name="長方形 6" width="36" height="60" transform="translate(101 364)" fill="#fff"/>
    <circle id="楕円形_1" data-name="楕円形 1" cx="21.5" cy="21.5" r="21.5" transform="translate(121 438)" fill="#38302e"/>
    <circle id="楕円形_2" data-name="楕円形 2" cx="21.5" cy="21.5" r="21.5" transform="translate(250 438)" fill="#38302e"/>
    <circle id="楕円形_3" data-name="楕円形 3" cx="12.5" cy="12.5" r="12.5" transform="translate(259 447)" fill="#fff"/>
    <circle id="楕円形_4" data-name="楕円形 4" cx="12.5" cy="12.5" r="12.5" transform="translate(130 447)" fill="#fff"/>
  </g>
</svg>
